# Blender v2.63 (sub 0) OBJ File: 'alienship.blend'
# www.blender.org
mtllib alienship_flame.mtl
v -0.171245 -0.115485 -0.000000
v -0.167954 -0.115485 -0.033408
v -0.158210 -0.115485 -0.065533
v -0.142385 -0.115485 -0.095139
v -0.121088 -0.115485 -0.121089
v -0.095138 -0.115485 -0.142385
v -0.065532 -0.115485 -0.158210
v -0.033408 -0.115485 -0.167955
v 0.000000 -0.115485 -0.171245
v 0.033408 -0.115485 -0.167955
v 0.065533 -0.115485 -0.158210
v 0.095139 -0.115485 -0.142385
v 0.121089 -0.115485 -0.121088
v 0.142385 -0.115485 -0.095139
v 0.158210 -0.115485 -0.065533
v 0.167955 -0.115485 -0.033408
v 0.171245 -0.115485 0.000000
v 0.167955 -0.115485 0.033408
v 0.158210 -0.115485 0.065533
v 0.142385 -0.115485 0.095139
v 0.121089 -0.115485 0.121088
v 0.095139 -0.115485 0.142385
v 0.065533 -0.115485 0.158210
v 0.033408 -0.115485 0.167955
v 0.000000 -0.115485 0.171245
v -0.033408 -0.115485 0.167955
v -0.065532 -0.115485 0.158210
v -0.095138 -0.115485 0.142385
v -0.121088 -0.115485 0.121088
v -0.142385 -0.115485 0.095139
v -0.158210 -0.115485 0.065533
v -0.167954 -0.115485 0.033408
v 0.000000 -0.400000 -0.000000
vn 0.475997 0.515671 -0.712363
vn 0.327860 0.515671 -0.791559
vn 0.000000 1.000000 0.000000
vn -0.327860 0.515671 -0.791559
vn -0.475997 0.515671 -0.712363
vn -0.840297 0.515671 -0.167119
vn -0.856777 0.515671 0.000000
vn -0.605823 0.515671 0.605823
vn -0.475997 0.515671 0.712363
vn 0.167119 0.515671 0.840297
vn 0.327860 0.515671 0.791559
vn 0.791559 0.515671 0.327860
vn 0.840297 0.515671 0.167119
vn 0.605823 0.515671 -0.605823
vn -0.167119 0.515671 -0.840297
vn -0.791559 0.515671 -0.327860
vn -0.712363 0.515671 0.475997
vn 0.000000 0.515671 0.856777
vn 0.712363 0.515671 0.475997
vn 0.712363 0.515671 -0.475997
vn 0.000000 0.515671 -0.856777
vn -0.712363 0.515671 -0.475997
vn -0.791559 0.515671 0.327860
vn -0.167119 0.515671 0.840297
vn 0.605823 0.515671 0.605823
vn 0.791559 0.515671 -0.327860
vn 0.167119 0.515671 -0.840297
vn -0.605823 0.515671 -0.605823
vn -0.840297 0.515671 0.167119
vn -0.327860 0.515671 0.791559
vn 0.475997 0.515671 0.712363
vn 0.840297 0.515671 -0.167150
vn 0.856777 0.515671 0.000000
usemtl 
s 1
f 28//1 27//2 33//3
f 23//4 22//5 33//3
f 18//6 17//7 33//3
f 13//8 12//9 33//3
f 8//10 7//11 33//3
f 3//12 2//13 33//3
f 29//14 28//1 33//3
f 33//3 24//15 23//4
f 19//16 18//6 33//3
f 14//17 13//8 33//3
f 9//18 8//10 33//3
f 33//3 4//19 3//12
f 30//20 29//14 33//3
f 25//21 24//15 33//3
f 20//22 19//16 33//3
f 15//23 14//17 33//3
f 10//24 9//18 33//3
f 5//25 4//19 33//3
f 31//26 30//20 33//3
f 26//27 25//21 33//3
f 33//3 21//28 20//22
f 16//29 15//23 33//3
f 11//30 10//24 33//3
f 6//31 5//25 33//3
f 32//32 31//26 33//3
f 33//3 27//2 26//27
f 22//5 21//28 33//3
f 17//7 16//29 33//3
f 12//9 11//30 33//3
f 33//3 7//11 6//31
f 2//13 1//33 33//3
f 1//33 32//32 33//3
